<svg xmlns="http://www.w3.org/2000/svg" viewBox="0 0 120 120" width="100%" height="100%">
  <!-- Transparent Background -->
  
  <!-- Document Outline -->
  <path d="M35 15 C26.716 15 20 21.716 20 30 V90 C20 98.284 26.716 105 35 105 H85 C93.284 105 100 98.284 100 90 V45 L70 15 H35 Z" fill="none" stroke="#1A202C" stroke-width="6" stroke-linecap="round" stroke-linejoin="round"/>
  
  <!-- Folded Corner -->
  <path d="M70 15 V35 C70 40.523 74.477 45 80 45 H100" fill="none" stroke="#1A202C" stroke-width="6" stroke-linecap="round" stroke-linejoin="round"/>
  
  <!-- Stylized Rx -->
  <path d="M42 45 V82.5 M42 45 H55 C61.627 45 67 50.373 67 57 C67 63.627 61.627 69 55 69 H42" fill="none" stroke="#4C8EAB" stroke-width="6" stroke-linecap="round" stroke-linejoin="round"/>
  <path d="M54 69 L74 91 M74 69 L54 91" fill="none" stroke="#4C8EAB" stroke-width="6" stroke-linecap="round" stroke-linejoin="round"/>
</svg>